# xmcd CD database file
#
# Track frame offsets:
#	150
#	18055
#	36717
#	59290
#	83330
#	106975
#	121442
#	147487
#	173197
#	189980
#	221942
#	258745
#	290902
#
# Disc length: 4184 seconds
#
# Revision: 0
# Processed by: cddbd v1.5.1PL0 Copyright (c) Steve Scherf et al.
# Submitted via: CDex 1.60beta1
#
DISCID=c710560d
DTITLE=Steve Marvin - Live At Scullers Jazz Club
DYEAR=0
DGENRE=Jazz
TTITLE0=No Greater Love
TTITLE1=Quiet Nights
TTITLE2=Moody's Modd For Love/I'm In The Mood For Love
TTITLE3=Four
TTITLE4=Where Or When/Nancy With The Laughing Face
TTITLE5=Bye Bye Blackbird
TTITLE6=A Time For Love
TTITLE7=Sweet Sue
TTITLE8=Satin Doll
TTITLE9=Duke Ellington Medley: Solitude/I've Got It Bad And That Ain't Good/Don't Get Around Much Anymore
TTITLE10=Billie's Bounce
TTITLE11=I Want You To Be My Baby/Jumpin' With Symphony Sid
TTITLE12=How Do You Keep The Music Playing?
EXTD=YEAR: 0
EXTT0=
EXTT1=
EXTT2=
EXTT3=
EXTT4=
EXTT5=
EXTT6=
EXTT7=
EXTT8=
EXTT9=
EXTT10=
EXTT11=
EXTT12=
PLAYORDER=
